<svg xmlns="http://www.w3.org/2000/svg" xmlns:xlink="http://www.w3.org/1999/xlink" version="1.1" width="24" height="24"><defs><linearGradient id="a"><stop offset="0" stop-color="#ff4700" stop-opacity="1"/><stop offset="1" stop-color="#ff4700" stop-opacity="0"/></linearGradient><linearGradient xlink:href="#a" id="b" x1="13" y1="24" x2="13" y2="-31" gradientUnits="userSpaceOnUse" gradientTransform="matrix(1.1 0 0 1.1 -1.1 -1.1)"/><clipPath clipPathUnits="userSpaceOnUse" id="c"><path d="M 9.8,48 C 5.6,47 2,44 0.69,40 0.07,38 0.1,39 0.1,24 0.1,11 0.1,11 0.27,9.7 0.75,7.2 1.7,5.3 3.6,3.5 5.3,1.8 6.9,0.91 9.4,0.29 10,0.15 11,0.14 23,0.11 33,0.08 37,0.1 38,0.17 43,0.75 47,4.3 48,9.4 V 10 23 c 0,14 0,15 0,16 -1,3 -2,5 -5,7 -1,1 -2,1 -4,2 H 38 24 C 13,48 10,48 9.8,48 Z" fill="none" fill-opacity="1" stroke="#000" stroke-width="2" stroke-miterlimit="4" stroke-dasharray="none" stroke-opacity=".08"/></clipPath></defs><path d="m 5.1,24 c -2,-1 -4,-2 -5,-4 0,-1 0,-1 0,-8 0,-7.1 0,-7.1 0,-7.1 0,-1 1,-2 2,-3 1,-1.01 2,-2 3,-2 0,0 1,0 6.9,0 5,0 7,0 7,0 3,0 5,2 5,5 v 0 6.1 c 0,7 0,8 0,8 0,2 -1,3 -2,4 -1,0 -1,0 -2,1 h -1 -7 c -4.9,0 -6.9,0 -6.9,0 z" fill="#fff" fill-opacity="1" stroke="none" stroke-width=".95" stroke-miterlimit="4" stroke-dasharray="none" stroke-opacity=".08" transform="translate(-.1 .1)" display="inline" opacity="1"/><rect width="24" height="24" x=".1" y="-.1" ry="6" rx="6" fill="url(#b)" fill-opacity="1" stroke="none" stroke-width="2.02" stroke-linecap="round" stroke-opacity="1" transform="translate(-.1 .1)" display="inline"/><path d="M 9.8,48 C 5.6,47 2,44 0.69,40 0.07,38 0.1,39 0.1,24 0.1,11 0.1,11 0.27,9.7 0.75,7.2 1.7,5.3 3.6,3.5 5.3,1.8 6.9,0.91 9.4,0.29 10,0.15 11,0.14 23,0.11 33,0.08 37,0.1 38,0.17 43,0.75 47,4.3 48,9.4 V 10 23 c 0,14 0,15 0,16 -1,3 -2,5 -5,7 -1,1 -2,1 -4,2 H 38 24 C 13,48 10,48 9.8,48 Z" clip-path="url(#c)" transform="matrix(.5 0 0 .5 -.02 -.02)" fill="none" fill-opacity="1" stroke="#000" stroke-width="4" stroke-miterlimit="4" stroke-dasharray="none" stroke-opacity=".08" display="inline"/><rect width="6.5" height="12" x="8.8" y="6" ry="3.2" fill="none" stroke="none" stroke-width=".135" stroke-miterlimit="4" stroke-dasharray="none" stroke-opacity=".64"/><g display="inline" stroke-width="2.2" stroke-linecap="round"><path d="m -18,18 0,-8 6,4 z" transform="scale(-1 1)" display="inline" fill="#fff"/><path d="M 6,14 6,6 13,9.8 Z" display="inline" fill="#1a1a1a"/></g></svg>